<svg width="104" height="96" viewBox="0 0 104 96" fill="none" xmlns="http://www.w3.org/2000/svg">
  <rect x="18" y="42" width="68" height="38" rx="12" fill="#FFF6F1"/>
  <rect x="24" y="32" width="56" height="18" rx="9" fill="#FF9BC5"/>
  <path d="M30 50C34 54 38 54 42 50C46 54 50 54 54 50C58 54 62 54 66 50C70 54 74 54 78 50" stroke="#FF9BC5" stroke-width="5" stroke-linecap="round"/>
  <rect x="31" y="16" width="6" height="18" rx="3" fill="#7ED1FF"/>
  <rect x="49" y="12" width="6" height="22" rx="3" fill="#FFD56C"/>
  <rect x="67" y="16" width="6" height="18" rx="3" fill="#9EF0B7"/>
  <path d="M34 9C36.7614 9 39 6.76142 39 4C36.2386 4 34 6.23858 34 9Z" fill="#FF8D72"/>
  <path d="M52 5C54.7614 5 57 2.76142 57 0C54.2386 0 52 2.23858 52 5Z" fill="#FF8D72"/>
  <path d="M70 9C72.7614 9 75 6.76142 75 4C72.2386 4 70 6.23858 70 9Z" fill="#FF8D72"/>
</svg>
