<svg width="96" height="96" viewBox="0 0 96 96" fill="none" xmlns="http://www.w3.org/2000/svg">
  <path d="M48 14V82" stroke="#F7F3EA" stroke-width="6" stroke-linecap="round"/>
  <path d="M18 31L78 65" stroke="#F7F3EA" stroke-width="6" stroke-linecap="round"/>
  <path d="M18 65L78 31" stroke="#F7F3EA" stroke-width="6" stroke-linecap="round"/>
  <path d="M48 14L40 24" stroke="#F7F3EA" stroke-width="6" stroke-linecap="round"/>
  <path d="M48 14L56 24" stroke="#F7F3EA" stroke-width="6" stroke-linecap="round"/>
  <path d="M48 82L40 72" stroke="#F7F3EA" stroke-width="6" stroke-linecap="round"/>
  <path d="M48 82L56 72" stroke="#F7F3EA" stroke-width="6" stroke-linecap="round"/>
  <path d="M18 31L30 32" stroke="#F7F3EA" stroke-width="6" stroke-linecap="round"/>
  <path d="M18 31L24 42" stroke="#F7F3EA" stroke-width="6" stroke-linecap="round"/>
  <path d="M78 65L66 64" stroke="#F7F3EA" stroke-width="6" stroke-linecap="round"/>
  <path d="M78 65L72 54" stroke="#F7F3EA" stroke-width="6" stroke-linecap="round"/>
  <path d="M18 65L24 54" stroke="#F7F3EA" stroke-width="6" stroke-linecap="round"/>
  <path d="M18 65L30 64" stroke="#F7F3EA" stroke-width="6" stroke-linecap="round"/>
  <path d="M78 31L66 32" stroke="#F7F3EA" stroke-width="6" stroke-linecap="round"/>
  <path d="M78 31L72 42" stroke="#F7F3EA" stroke-width="6" stroke-linecap="round"/>
</svg>
