<svg width="96" height="88" viewBox="0 0 96 88" fill="none" xmlns="http://www.w3.org/2000/svg">
  <path d="M48 79C45.3333 76.6667 42.1667 73.9444 38.5 70.8333C34.8333 67.7222 30.9444 64.2778 26.8333 60.5C22.7222 56.7222 19.1667 53 16.1667 49.3333C13.1667 45.6667 10.6667 41.8333 8.66667 37.8333C6.66667 33.8333 5.66667 29.8333 5.66667 25.8333C5.66667 18.5 8.11111 12.4444 13 7.66667C17.8889 2.88889 24 0.5 31.3333 0.5C35.5556 0.5 39.6111 1.47222 43.5 3.41667C47.3889 5.36111 50.5556 8.16667 53 11.8333C55.4444 8.16667 58.6111 5.36111 62.5 3.41667C66.3889 1.47222 70.4444 0.5 74.6667 0.5C82 0.5 88.1111 2.88889 93 7.66667C97.8889 12.4444 100.333 18.5 100.333 25.8333C100.333 29.8333 99.3333 33.8333 97.3333 37.8333C95.3333 41.8333 92.8333 45.6667 89.8333 49.3333C86.8333 53 83.2778 56.7222 79.1667 60.5C75.0556 64.2778 71.1667 67.7222 67.5 70.8333C63.8333 73.9444 60.6667 76.6667 58 79L53 83.5L48 79Z" fill="#FFF7FF"/>
  <path d="M53 16C55.9333 12.4 59.4222 9.62222 63.4667 7.66667C67.5111 5.71111 71.7111 4.73333 76.0667 4.73333C80.9556 4.73333 85.1444 6.28889 88.6333 9.4C92.1222 12.5111 93.8667 16.5556 93.8667 21.5333C93.8667 26.6 92.1 31.4778 88.5667 36.1667C85.0333 40.8556 80.6889 45.4333 75.5333 49.9C70.3778 54.3667 62.8667 60.3778 53 67.9333C43.1333 60.3778 35.6222 54.3667 30.4667 49.9C25.3111 45.4333 20.9667 40.8556 17.4333 36.1667C13.9 31.4778 12.1333 26.6 12.1333 21.5333C12.1333 16.5556 13.8778 12.5111 17.3667 9.4C20.8556 6.28889 25.0444 4.73333 29.9333 4.73333C34.2889 4.73333 38.4889 5.71111 42.5333 7.66667C46.5778 9.62222 50.0667 12.4 53 16Z" fill="#FFA7E4"/>
</svg>
